<svg xmlns="http://www.w3.org/2000/svg" xmlns:xlink="http://www.w3.org/1999/xlink" width="21.252" height="23" viewBox="0 0 21.252 23">
  <defs>
    <clipPath id="clip-path">
      <rect id="Rectangle_3876" data-name="Rectangle 3876" width="21.252" height="23" fill="#000098"/>
    </clipPath>
  </defs>
  <g id="Group_5306" data-name="Group 5306" transform="translate(0 0)">
    <g id="Group_5263" data-name="Group 5263" transform="translate(0 0)" clip-path="url(#clip-path)">
      <path id="Path_52917" data-name="Path 52917" d="M6.114,15.451a.98.98,0,0,1-.8-.416l-3.083-4.4A.981.981,0,0,1,2.457,9.28,18.329,18.329,0,0,0,8.5.7a.977.977,0,0,1,1.735-.28L17.65,10.989a.977.977,0,0,1-.854,1.537A18.322,18.322,0,0,0,6.663,15.281a.975.975,0,0,1-.55.171M4.355,10.263l2.034,2.9a20.5,20.5,0,0,1,8.587-2.581L9.712,3.072a20.494,20.494,0,0,1-5.357,7.191" transform="translate(3.426 0.001)" fill="#000098"/>
      <path id="Path_52918" data-name="Path 52918" d="M5.413,13.4a.973.973,0,0,1-.8-.416L.659,7.349A.978.978,0,0,1,.9,5.988L4.655,3.353a.969.969,0,0,1,.729-.163.979.979,0,0,1,.633.4L9.969,9.231a.98.98,0,0,1-.24,1.364L5.973,13.226a.967.967,0,0,1-.561.176M2.821,7.026,5.65,11.064,7.807,9.554,4.975,5.515Z" transform="translate(0.804 5.301)" fill="#000098"/>
      <path id="Path_52919" data-name="Path 52919" d="M3.173,11.355a3,3,0,0,1-2.53-1.19l-.16-.227C-.591,8.408.186,6.075,2.249,4.629a.979.979,0,0,1,.729-.16.965.965,0,0,1,.633.4L6.472,8.953a.979.979,0,0,1-.238,1.361,5.5,5.5,0,0,1-2.973,1.038l-.088,0M2.636,6.887C2,7.613,1.8,8.411,2.081,8.814l.16.227a1.211,1.211,0,0,0,.977.358,3.063,3.063,0,0,0,1.025-.219Z" transform="translate(0.001 7.434)" fill="#000098"/>
      <path id="Path_52920" data-name="Path 52920" d="M4.292,13.578A.977.977,0,0,1,3.731,11.8a.414.414,0,0,0,.115-.117L2.88,6.812A.978.978,0,0,1,4.8,6.433l.982,4.951A2.049,2.049,0,0,1,4.852,13.4a.967.967,0,0,1-.561.176" transform="translate(4.775 9.422)" fill="#000098"/>
    </g>
  </g>
</svg>
