<svg xmlns="http://www.w3.org/2000/svg" width="71.937" height="55.617" viewBox="0 0 71.937 55.617">
  <g id="Group_5299" data-name="Group 5299" transform="translate(1 1)">
    <g id="Group_5300" data-name="Group 5300" transform="translate(0.5 0.5)">
      <line id="Line_115" data-name="Line 115" y2="52.601" transform="translate(34.469 0.015)" fill="none" stroke="#fff" stroke-linecap="round" stroke-linejoin="round" stroke-width="3"/>
      <line id="Line_116" data-name="Line 116" x2="19.896" transform="translate(24.521 52.616)" fill="none" stroke="#fff" stroke-linecap="round" stroke-linejoin="round" stroke-width="3"/>
      <line id="Line_117" data-name="Line 117" x2="49.401" transform="translate(9.768 0.015)" fill="none" stroke="#fff" stroke-linecap="round" stroke-linejoin="round" stroke-width="3"/>
      <path id="Path_52966" data-name="Path 52966" d="M20.4,23.712a9.948,9.948,0,0,1-19.9,0C.5,18.218,9.362.5,10.448.5,11.573.5,20.4,18.218,20.4,23.712Z" transform="translate(-0.5 -0.5)" fill="none" stroke="#fff" stroke-linecap="round" stroke-linejoin="round" stroke-width="3"/>
      <path id="Path_52967" data-name="Path 52967" d="M86.949,23.712a9.948,9.948,0,0,1-19.9,0C67.053,18.218,75.915.5,77,.5,78.126.5,86.949,18.218,86.949,23.712Z" transform="translate(-18.012 -0.5)" fill="none" stroke="#fff" stroke-linecap="round" stroke-linejoin="round" stroke-width="3"/>
    </g>
  </g>
</svg>
