<svg id="Group_5305" data-name="Group 5305" xmlns="http://www.w3.org/2000/svg" xmlns:xlink="http://www.w3.org/1999/xlink" width="20.426" height="19.73" viewBox="0 0 20.426 19.73">
  <defs>
    <clipPath id="clip-path">
      <rect id="Rectangle_3877" data-name="Rectangle 3877" width="20.426" height="19.73" fill="#fab004"/>
    </clipPath>
  </defs>
  <g id="Group_5265" data-name="Group 5265" transform="translate(0 0)" clip-path="url(#clip-path)">
    <path id="Path_52921" data-name="Path 52921" d="M5.833,19.73A3.108,3.108,0,0,1,4,19.122a3.072,3.072,0,0,1-1.133-3.486l.742-2.282A1.033,1.033,0,0,0,3.232,12.2l-1.94-1.409A3.119,3.119,0,0,1,3.126,5.149h2.4a1.024,1.024,0,0,0,.979-.71l.742-2.285a3.12,3.12,0,0,1,5.934,0l.742,2.279a1.023,1.023,0,0,0,.979.713h2.4a3.12,3.12,0,0,1,1.834,5.643L17.193,12.2a1.033,1.033,0,0,0-.377,1.153l.742,2.282a3.118,3.118,0,0,1-4.8,3.486l-1.943-1.409a1.023,1.023,0,0,0-1.21,0L7.665,19.122a3.106,3.106,0,0,1-1.832.608m4.379-4.3a3.129,3.129,0,0,1,1.834.6l1.94,1.412a1.029,1.029,0,0,0,1.583-1.153L14.831,14a3.106,3.106,0,0,1,1.133-3.486L17.9,9.1a1.028,1.028,0,0,0-.6-1.86H14.9a3.114,3.114,0,0,1-2.967-2.157L11.191,2.8a1.029,1.029,0,0,0-1.957,0L8.492,5.084A3.114,3.114,0,0,1,5.525,7.24h-2.4a1.028,1.028,0,0,0-.6,1.86l1.94,1.409A3.112,3.112,0,0,1,5.594,14l-.742,2.282a1.031,1.031,0,0,0,1.586,1.153l1.94-1.412a3.129,3.129,0,0,1,1.834-.6" transform="translate(0.001 0)" fill="#fab004"/>
  </g>
</svg>
