<svg xmlns="http://www.w3.org/2000/svg" width="79.733" height="50.415" viewBox="0 0 79.733 50.415">
  <g id="Group_5291" data-name="Group 5291" transform="translate(0.594 0.528)">
    <g id="Group_5292" data-name="Group 5292" transform="translate(0.987 0.986)">
      <path id="Path_52948" data-name="Path 52948" d="M11.234,4.5l3.036-.288a24.014,24.014,0,0,1,9.7,1.209" transform="translate(6.665 1.927)" fill="none" stroke="#fff" stroke-linecap="round" stroke-linejoin="round" stroke-width="3"/>
      <path id="Path_52949" data-name="Path 52949" d="M36.222,8.51,53.617,22.977a3.815,3.815,0,1,1-4.856,5.884l-6.383-5.267,6.938,5.8a4.057,4.057,0,1,1-5.259,6.18L36.452,28.98l5.963,5.259a3.876,3.876,0,1,1-5.244,5.708L30.3,33.367l3.166,3.253a3.362,3.362,0,0,1-4.716,4.792L7.634,21.593" transform="translate(4.262 4.846)" fill="none" stroke="#fff" stroke-linecap="round" stroke-linejoin="round" stroke-width="3"/>
      <path id="Path_52950" data-name="Path 52950" d="M49.454,6.058l-2.423.79A5.631,5.631,0,0,1,43.5,6.8L33.238,3.263A10.859,10.859,0,0,0,22.157,5.719L16.5,11.18a4.292,4.292,0,1,0,6.051,6.088L24.476,15.3a8.488,8.488,0,0,1,4.259-2.359l2.443-.535" transform="translate(9.307 0.949)" fill="none" stroke="#fff" stroke-linecap="round" stroke-linejoin="round" stroke-width="3"/>
      <path id="Path_52952" data-name="Path 52952" d="M9.276.608l7.8,3.232a2.155,2.155,0,0,1,1.012,2.62L11.567,28.1a1.653,1.653,0,0,1-2.159,1.262L1.6,26.052a2.162,2.162,0,0,1-1-2.618L7.13,1.874A1.654,1.654,0,0,1,9.276.608Z" transform="translate(-0.5 -0.5)" fill="none" stroke="#fff" stroke-linecap="round" stroke-linejoin="round" stroke-width="3"/>
      <path id="Path_52954" data-name="Path 52954" d="M35.832,6.7,42.36,29.926a1.617,1.617,0,0,0,2.038,1.2l8-2.666a1.845,1.845,0,0,0,1.109-2.208L47.859,3.323a1.632,1.632,0,0,0-1.964-1.284L37.012,4.407A1.836,1.836,0,0,0,35.832,6.7Z" transform="translate(23.033 0.494)" fill="none" stroke="#fff" stroke-linecap="round" stroke-linejoin="round" stroke-width="3"/>
      <line id="Line_107" data-name="Line 107" y1="0.634" x2="5.759" transform="translate(59.339 30.344)" fill="none" stroke="#fff" stroke-linecap="round" stroke-linejoin="round" stroke-width="3"/>
    </g>
  </g>
</svg>
