<svg xmlns="http://www.w3.org/2000/svg" width="135.323" height="42.746" viewBox="0 0 135.323 42.746">
  <path id="logo" d="M32.62,6.946,27.412,36.554H18.845l3.928-22.3H8.536L4.271,6.946Zm-3.59,31.533L34.913,5.038H.947L7.434,16.179H20.5l-3.946,22.3ZM47.461,6.946,44.51,23.7H35.961l2.9-16.756ZM46.11,25.609,49.736,5.021H37.241L33.686,25.609Zm35.761,3.726,5.368,7.237H75.525L60.738,15.466,57.432,33.88l-9.491,5.365,5.688-32.3H65.27l9.7,13.084,1.8-10.82,9.491-5.383Zm9.171,9.145L83.9,28.853,88.838.172,75.046,7.98,73.837,15.27,66.248,5.038h-14.2L45.363,42.918l13.81-7.808,2.666-14.8L74.566,38.479ZM134,20.547l-2.808,16.025H110.255l1.334-7.558h12.37l2.009-11.48c.338-1.925-1-3.28-3.4-3.28h-14.5l-3.982,22.318H95.609L99.52,14.254,95.308,6.946h27.886C134.96,6.946,135,14.842,134,20.547ZM123.212,5.038H92l5.528,9.572L93.334,38.479h12.353l3.982-22.318h12.9c1.618,0,1.582.642,1.511,1.034l-1.741,9.893H109.971l-2.009,11.391h24.8l3.092-17.612C136.916,14.985,136.969,5.038,123.212,5.038Z" transform="translate(-0.947 -0.172)" fill="#fff"/>
</svg>
