<svg id="Group_5303" data-name="Group 5303" xmlns="http://www.w3.org/2000/svg" xmlns:xlink="http://www.w3.org/1999/xlink" width="21.384" height="22.692" viewBox="0 0 21.384 22.692">
  <defs>
    <clipPath id="clip-path">
      <rect id="Rectangle_3875" data-name="Rectangle 3875" width="21.384" height="22.692" fill="red"/>
    </clipPath>
  </defs>
  <g id="Group_5260" data-name="Group 5260" transform="translate(0 0)" clip-path="url(#clip-path)">
    <path id="Path_52914" data-name="Path 52914" d="M3.173,18.381a2.05,2.05,0,0,1-2.042-2.2L1.612,10a.776.776,0,0,1,.241-.5L11.33.609A2.2,2.2,0,0,1,12.935,0,2.231,2.231,0,0,1,14.5.71l4.99,5.321a2.245,2.245,0,0,1-.1,3.171L9.914,18.088a.782.782,0,0,1-.519.211l-6.2.082Zm-.044-7.964-.456,5.878a.494.494,0,0,0,.133.382.551.551,0,0,0,.373.158l5.895-.078,9.257-8.682a.687.687,0,0,0,.219-.487.7.7,0,0,0-.188-.5l-4.99-5.321a.7.7,0,0,0-.987-.032Z" transform="translate(1.249 -0.001)" fill="red"/>
    <path id="Path_52915" data-name="Path 52915" d="M5.018,9.816A2.384,2.384,0,1,1,6.646,9.17a2.367,2.367,0,0,1-1.629.646m-.576-3A.838.838,0,0,0,4.988,8.27a.806.806,0,0,0,.6-.226A.839.839,0,1,0,4.442,6.82" transform="translate(2.921 5.604)" fill="red"/>
    <path id="Path_52916" data-name="Path 52916" d="M6.89,17.9a.777.777,0,0,1-.367-.093L1.074,14.863a2.046,2.046,0,0,1-.732-2.933l2.371-3.57a.772.772,0,0,1,1.414.487l-.2,2.658a.5.5,0,0,0,.133.382.571.571,0,0,0,.373.158l5.895-.08L18.26,4.524a.773.773,0,0,1,1.27.346c.023.074,1.787,7.148,1.787,7.148a2.241,2.241,0,0,1-1.635,2.719L7.078,17.88a.8.8,0,0,1-.188.023M2.378,11.659l-.749,1.129a.492.492,0,0,0-.07.4.509.509,0,0,0,.249.321l5.186,2.8,12.314-3.07a.7.7,0,0,0,.508-.848L18.361,6.549l-7.2,6.751a.78.78,0,0,1-.519.209l-6.2.082a2.092,2.092,0,0,1-1.519-.646,2.051,2.051,0,0,1-.551-1.287" transform="translate(0 4.788)" fill="red"/>
  </g>
</svg>
