<svg id="Group_3983" data-name="Group 3983" xmlns="http://www.w3.org/2000/svg" xmlns:xlink="http://www.w3.org/1999/xlink" width="24" height="24" viewBox="0 0 24 24">
  <defs>
    <clipPath id="clip-path">
      <rect id="Rectangle_3797" data-name="Rectangle 3797" width="24" height="24" fill="none" stroke="#fff" stroke-width="1.5"/>
    </clipPath>
  </defs>
  <g id="Group_3982" data-name="Group 3982" clip-path="url(#clip-path)">
    <path id="Path_2880" data-name="Path 2880" d="M20.254,13.5H23.5v-3H20.253a11.8,11.8,0,0,0-1-2.922l2.3-2.3L18.717,2.454l-2.3,2.3a11.769,11.769,0,0,0-2.92-1V.5h-3V3.748a11.777,11.777,0,0,0-2.921,1l-2.3-2.3L2.453,5.283l2.3,2.3a11.821,11.821,0,0,0-1,2.921H.5v3H3.746a11.821,11.821,0,0,0,1,2.921l-2.3,2.3,2.829,2.828,2.3-2.3a11.763,11.763,0,0,0,2.922,1V23.5h3V20.254a11.8,11.8,0,0,0,2.92-1l2.3,2.3,2.828-2.828-2.3-2.3A11.821,11.821,0,0,0,20.254,13.5Z" fill="none" stroke="#fff" stroke-linecap="round" stroke-linejoin="round" stroke-width="1.5"/>
    <circle id="Ellipse_1713" data-name="Ellipse 1713" cx="4.5" cy="4.5" r="4.5" transform="translate(7.5 7.5)" fill="none" stroke="#fff" stroke-linecap="round" stroke-linejoin="round" stroke-width="1.5"/>
  </g>
</svg>
